<svg width="45" height="45" viewBox="0 0 45 45" fill="none" xmlns="http://www.w3.org/2000/svg">
<path fill-rule="evenodd" clip-rule="evenodd" d="M22.5 0.710526C21.5264 0.710526 20.5926 1.0973 19.9042 1.78575C19.2157 2.47421 18.8289 3.40796 18.8289 4.38158V4.72382L18.8289 4.72523C18.8261 5.44232 18.6136 6.14293 18.2177 6.74081C17.8217 7.33868 17.2596 7.80773 16.6005 8.09022C16.5563 8.10917 16.5086 8.11895 16.4605 8.11895H16.3724C15.7189 8.39124 15 8.46927 14.3023 8.34276C13.5794 8.21168 12.9123 7.86705 12.3871 7.35331L12.3843 7.35057L12.2635 7.22976C11.9226 6.88844 11.5176 6.61753 11.0719 6.43278C10.6263 6.24804 10.1486 6.15295 9.66612 6.15295C9.18368 6.15295 8.70598 6.24804 8.26032 6.43278C7.81467 6.61753 7.40979 6.8883 7.06885 7.22962L7.06857 7.2299C6.72725 7.57084 6.45648 7.97572 6.27173 8.42138C6.08699 8.86704 5.9919 9.34474 5.9919 9.82717C5.9919 10.3096 6.08699 10.7873 6.27173 11.233C6.45648 11.6786 6.72725 12.0835 7.06857 12.4244L7.19227 12.5481C7.70601 13.0733 8.05063 13.7404 8.1817 14.4633C8.31211 15.1825 8.22519 15.9242 7.93217 16.5937C7.67674 17.2817 7.22123 17.8776 6.62416 18.3047C6.02404 18.7339 5.30868 18.9726 4.57107 18.9899L4.56276 18.99H4.38158C3.40796 18.99 2.47421 19.3768 1.78575 20.0652C1.0973 20.7537 0.710526 21.6874 0.710526 22.6611C0.710526 23.6347 1.0973 24.5684 1.78575 25.2569C2.47421 25.9453 3.40796 26.3321 4.38158 26.3321H4.72523C5.44232 26.335 6.14293 26.5474 6.7408 26.9434C7.33816 27.339 7.80691 27.9005 8.08948 28.5589C8.3855 29.2305 8.47372 29.9755 8.34276 30.6977C8.21168 31.4206 7.86705 32.0877 7.35331 32.6129L7.35056 32.6157L7.22976 32.7365C6.88844 33.0774 6.61753 33.4824 6.43278 33.9281C6.24804 34.3737 6.15295 34.8514 6.15295 35.3339C6.15295 35.8163 6.24804 36.294 6.43278 36.7397C6.61753 37.1853 6.8883 37.5902 7.22962 37.9312L7.2299 37.9314C7.57084 38.2728 7.97572 38.5435 8.42138 38.7283C8.86704 38.913 9.34474 39.0081 9.82717 39.0081C10.3096 39.0081 10.7873 38.913 11.233 38.7283C11.6786 38.5435 12.0835 38.2728 12.4244 37.9314L12.5481 37.8077C13.0733 37.294 13.7404 36.9494 14.4633 36.8183C15.1826 36.6879 15.9242 36.7748 16.5937 37.0678C17.2817 37.3233 17.8776 37.7788 18.3047 38.3758C18.7339 38.976 18.9726 39.6913 18.9899 40.4289L18.99 40.4372V40.6184C18.99 41.592 19.3768 42.5258 20.0652 43.2142C20.7537 43.9027 21.6874 44.2895 22.6611 44.2895C23.6347 44.2895 24.5684 43.9027 25.2569 43.2142C25.9453 42.5258 26.3321 41.592 26.3321 40.6184V40.2762L26.3321 40.2748C26.335 39.5577 26.5474 38.8571 26.9434 38.2592C27.339 37.6619 27.9004 37.1932 28.5587 36.9106C29.2304 36.6145 29.9754 36.5263 30.6977 36.6572C31.4206 36.7883 32.0877 37.1329 32.6129 37.6467L32.6157 37.6494L32.7365 37.7702C33.0774 38.1116 33.4824 38.3825 33.9281 38.5672C34.3737 38.752 34.8514 38.8471 35.3339 38.8471C35.8163 38.8471 36.294 38.752 36.7397 38.5672C37.1853 38.3825 37.5902 38.1117 37.9312 37.7704L37.9314 37.7701C38.2728 37.4292 38.5435 37.0243 38.7283 36.5786C38.913 36.133 39.0081 35.6553 39.0081 35.1728C39.0081 34.6904 38.913 34.2127 38.7283 33.767C38.5435 33.3214 38.2728 32.9165 37.9314 32.5756L37.8077 32.4519C37.294 31.9267 36.9494 31.2596 36.8183 30.5367C36.6873 29.8143 36.7756 29.0693 37.0716 28.3976C37.3542 27.7393 37.8229 27.1779 38.4202 26.7823C39.0181 26.3864 39.7187 26.1739 40.4358 26.1711L40.4372 26.1711L40.6184 26.1711C41.592 26.1711 42.5258 25.7843 43.2142 25.0958C43.9027 24.4074 44.2895 23.4736 44.2895 22.5C44.2895 21.5264 43.9027 20.5926 43.2142 19.9042C42.5258 19.2157 41.592 18.8289 40.6184 18.8289H40.2762L40.2748 18.8289C39.5577 18.8261 38.8571 18.6136 38.2592 18.2177C37.6613 17.8217 37.1923 17.2596 36.9098 16.6005C36.8908 16.5563 36.8811 16.5086 36.8811 16.4605V16.3724C36.6088 15.7189 36.5307 15 36.6572 14.3023C36.7883 13.5794 37.1329 12.9123 37.6467 12.3871L37.6494 12.3843L37.7702 12.2635C38.1116 11.9226 38.3825 11.5176 38.5672 11.0719C38.752 10.6263 38.847 10.1486 38.847 9.66612C38.847 9.18369 38.752 8.70598 38.5672 8.26033C38.3825 7.81467 38.1117 7.40979 37.7704 7.06885L37.7701 7.06857C37.4292 6.72725 37.0243 6.45647 36.5786 6.27173C36.133 6.08699 35.6553 5.9919 35.1728 5.9919C34.6904 5.9919 34.2127 6.08699 33.767 6.27173C33.3214 6.45648 32.9165 6.72725 32.5756 7.06857L32.4519 7.19227C31.9267 7.70601 31.2596 8.05063 30.5367 8.1817C29.8144 8.31267 29.0695 8.22445 28.3978 7.92843C27.7394 7.64586 27.1779 7.17711 26.7823 6.57975C26.3864 5.98188 26.1739 5.28127 26.1711 4.56418L26.1711 4.56276V4.38158C26.1711 3.40796 25.7843 2.47421 25.0958 1.78575C24.4074 1.0973 23.4736 0.710526 22.5 0.710526ZM19.4018 1.28333C20.2235 0.461629 21.3379 0 22.5 0C23.6621 0 24.7765 0.461629 25.5982 1.28333C26.4199 2.10504 26.8816 3.21951 26.8816 4.38158L26.8816 4.56135C26.8816 4.56157 26.8816 4.56179 26.8816 4.56201C26.884 5.1403 27.0554 5.70528 27.3747 6.18744C27.6942 6.66978 28.1477 7.0482 28.6794 7.2761L28.6829 7.2776C29.2252 7.51692 29.8267 7.58833 30.4099 7.48258C30.9925 7.37694 31.5302 7.09938 31.9537 6.68563C31.9541 6.68519 31.9546 6.68476 31.955 6.68433L32.0729 6.56643C32.0729 6.56638 32.0728 6.56648 32.0729 6.56643C32.4798 6.15911 32.9631 5.83584 33.4949 5.61537C34.0269 5.39487 34.597 5.28137 35.1728 5.28137C35.7486 5.28137 36.3188 5.39487 36.8507 5.61537C37.3825 5.83582 37.8656 6.1589 38.2725 6.56615C38.6799 6.97308 39.0031 7.45632 39.2236 7.98824C39.4441 8.52015 39.5576 9.09031 39.5576 9.66612C39.5576 10.2419 39.4441 10.8121 39.2236 11.344C39.0031 11.8759 38.6799 12.3592 38.2725 12.7661L38.1546 12.884C38.1542 12.8844 38.1537 12.8849 38.1533 12.8853C37.7395 13.3088 37.462 13.8465 37.3564 14.429C37.2506 15.0123 37.322 15.6138 37.5613 16.156C37.5813 16.2012 37.5916 16.2501 37.5916 16.2995V16.3855C37.8219 16.8892 38.1889 17.3189 38.6515 17.6253C39.1337 17.9446 39.6986 18.116 40.2769 18.1184H40.6184C41.7805 18.1184 42.895 18.5801 43.7167 19.4018C44.5384 20.2235 45 21.3379 45 22.5C45 23.6621 44.5384 24.7765 43.7167 25.5982C42.895 26.42 41.7805 26.8816 40.6184 26.8816L40.4387 26.8816C40.4384 26.8816 40.4382 26.8816 40.438 26.8816C39.8597 26.884 39.2947 27.0554 38.8126 27.3747C38.3302 27.6942 37.9518 28.1477 37.7239 28.6794L37.7224 28.6829C37.4831 29.2252 37.4117 29.8267 37.5174 30.4099C37.623 30.9925 37.9006 31.5301 38.3143 31.9536C38.3147 31.954 38.3152 31.9545 38.3157 31.955L38.4336 32.0729C38.4336 32.0729 38.4335 32.0728 38.4336 32.0729C38.8409 32.4798 39.1642 32.9631 39.3846 33.4949C39.6051 34.0269 39.7186 34.597 39.7186 35.1728C39.7186 35.7486 39.6051 36.3188 39.3846 36.8507C39.1642 37.3826 38.841 37.8658 38.4337 38.2727C38.0268 38.68 37.5436 39.0031 37.0118 39.2236C36.4799 39.4441 35.9097 39.5576 35.3339 39.5576C34.7581 39.5576 34.1879 39.4441 33.656 39.2236C33.1241 39.0031 32.641 38.68 32.2341 38.2727C32.234 38.2726 32.2341 38.2727 32.2341 38.2727L32.116 38.1546C32.1156 38.1541 32.1151 38.1537 32.1146 38.1532C31.6911 37.7395 31.1535 37.462 30.571 37.3564C29.9877 37.2506 29.3862 37.322 28.844 37.5613L28.8405 37.5629C28.3087 37.7908 27.8552 38.1692 27.5358 38.6515C27.2165 39.1337 27.0451 39.6987 27.0426 40.2769C27.0426 40.2772 27.0426 40.2774 27.0426 40.2776L27.0426 40.6184C27.0426 41.7805 26.581 42.895 25.7593 43.7167C24.9376 44.5384 23.8231 45 22.6611 45C21.499 45 20.3845 44.5384 19.5628 43.7167C18.7411 42.895 18.2795 41.7805 18.2795 40.6184V40.4415C18.2648 39.8479 18.0722 39.2722 17.7267 38.7892C17.3805 38.305 16.8965 37.9363 16.3379 37.7308C16.3341 37.7294 16.3304 37.728 16.3266 37.7264C16.3234 37.7251 16.3202 37.7238 16.3171 37.7224C15.7748 37.4831 15.1733 37.4117 14.5901 37.5174C14.0075 37.6231 13.4699 37.9006 13.0464 38.3143C13.0459 38.3148 13.0455 38.3152 13.045 38.3157L12.9271 38.4336C12.5202 38.841 12.037 39.1641 11.5051 39.3846C10.9731 39.6051 10.403 39.7186 9.82717 39.7186C9.25136 39.7186 8.6812 39.6051 8.14929 39.3846C7.61737 39.1641 7.13414 38.841 6.7272 38.4336C6.31995 38.0267 5.99687 37.5436 5.77642 37.0118C5.55592 36.4799 5.44242 35.9097 5.44242 35.3339C5.44242 34.7581 5.55592 34.1879 5.77642 33.656C5.99689 33.1241 6.32003 32.641 6.72734 32.2341C6.72739 32.234 6.7273 32.2341 6.72734 32.2341L6.84538 32.1161C6.84582 32.1156 6.84626 32.1152 6.84671 32.1147C7.26044 31.6912 7.538 31.1536 7.64363 30.571C7.74938 29.9877 7.67799 29.3862 7.43867 28.844L7.43713 28.8405C7.20923 28.3087 6.83083 27.8552 6.34849 27.5358C5.86633 27.2165 5.30135 27.0451 4.72306 27.0426C4.72284 27.0426 4.72262 27.0426 4.7224 27.0426L4.38158 27.0426C3.21951 27.0426 2.10504 26.581 1.28333 25.7593C0.461629 24.9376 0 23.8231 0 22.6611C0 21.499 0.461629 20.3845 1.28333 19.5628C2.10504 18.7411 3.21951 18.2795 4.38158 18.2795H4.55851C5.15215 18.2648 5.72776 18.0722 6.21081 17.7268C6.69496 17.3805 7.06374 16.8966 7.2692 16.3379C7.27179 16.3309 7.27459 16.3239 7.27761 16.3171C7.51694 15.7748 7.58832 15.1733 7.48258 14.5901C7.37694 14.0075 7.09939 13.4699 6.68565 13.0464L6.56643 12.9271C6.15905 12.5202 5.83587 12.037 5.61537 11.5051C5.39487 10.9731 5.28137 10.403 5.28137 9.82717C5.28137 9.25136 5.39487 8.6812 5.61537 8.14929C5.83587 7.61737 6.15905 7.13413 6.56643 6.7272C6.9733 6.31995 7.45644 5.99687 7.98824 5.77642C8.52015 5.55592 9.09031 5.44242 9.66612 5.44242C10.2419 5.44242 10.8121 5.55592 11.344 5.77642C11.8759 5.99689 12.359 6.32003 12.7659 6.72734C12.766 6.72739 12.7659 6.7273 12.7659 6.72734L12.8853 6.84673C13.3088 7.26045 13.8465 7.538 14.429 7.64363C15.0123 7.74938 15.6138 7.67799 16.156 7.43867C16.2012 7.41872 16.2501 7.40842 16.2995 7.40842H16.3854C16.8892 7.17811 17.3189 6.8111 17.6253 6.34849C17.9446 5.86633 18.116 5.30135 18.1184 4.72306V4.38158C18.1184 3.21951 18.5801 2.10504 19.4018 1.28333Z" fill="black"/>
</svg>
