<svg width="80" height="88" viewBox="0 0 80 88" fill="none" xmlns="http://www.w3.org/2000/svg">
<path fill-rule="evenodd" clip-rule="evenodd" d="M35.3347 1.25856C36.7532 0.439895 38.3622 0.00891113 40 0.00891113C41.6378 0.00891113 43.2468 0.439895 44.6653 1.25856C44.6657 1.25882 44.6662 1.25908 44.6666 1.25934L75 18.5927C76.4174 19.411 77.5947 20.5877 78.4138 22.0048C79.2329 23.4218 79.665 25.0293 79.6666 26.666V61.334C79.665 62.9708 79.2329 64.5783 78.4138 65.9953C77.5947 67.4123 76.4174 68.589 75 69.4074L74.9974 69.4089L44.6666 86.7407C44.6664 86.7409 44.6661 86.741 44.6659 86.7411C43.2472 87.56 41.638 87.9911 40 87.9911C38.3619 87.9911 36.7527 87.56 35.3341 86.7411C35.3338 86.741 35.3336 86.7409 35.3333 86.7407L5.00255 69.4089L4.99998 69.4074C3.58254 68.589 2.40522 67.4123 1.58613 65.9953C0.767046 64.5783 0.334992 62.9708 0.333313 61.334V26.666C0.334992 25.0293 0.767046 23.4218 1.58613 22.0048C2.40522 20.5877 3.58254 19.411 4.99998 18.5927L5.00255 18.5912L35.3333 1.25934C35.3338 1.25908 35.3342 1.25882 35.3347 1.25856ZM40 1.34224C38.5957 1.34224 37.2161 1.71189 36 2.41404L35.9974 2.41552L5.66665 19.7474C5.66619 19.7476 5.66574 19.7479 5.66529 19.7482C4.45095 20.4496 3.44231 21.4579 2.74049 22.672C2.03847 23.8865 1.66814 25.2642 1.66665 26.667V61.333C1.66814 62.7358 2.03847 64.1135 2.74049 65.328C3.44227 66.5421 4.45083 67.5504 5.66509 68.2518C5.66561 68.2521 5.66613 68.2524 5.66665 68.2527L36 85.586C37.2161 86.2881 38.5957 86.6578 40 86.6578C41.4043 86.6578 42.7838 86.2882 44 85.586L44.0026 85.5845L74.3333 68.2527C74.3338 68.2524 74.3343 68.2521 74.3349 68.2518C75.5491 67.5504 76.5577 66.5421 77.2595 65.328C77.9615 64.1134 78.3319 62.7356 78.3333 61.3327V26.6674C78.3319 25.2645 77.9615 23.8866 77.2595 22.672C76.5576 21.4579 75.549 20.4496 74.3347 19.7482C74.3342 19.7479 74.3338 19.7476 74.3333 19.7474L44.0026 2.41552L44 2.41404C42.7838 1.71189 41.4043 1.34224 40 1.34224Z" fill="black"/>
</svg>
