<svg width="83" height="82" viewBox="0 0 83 82" fill="none" xmlns="http://www.w3.org/2000/svg">
<path fill-rule="evenodd" clip-rule="evenodd" d="M41.5001 2.21563C39.7469 2.21563 38.0655 2.90407 36.8259 4.12949C35.5862 5.35491 34.8898 7.01694 34.8898 8.74995V9.35911L34.8898 9.36164C34.8846 10.638 34.502 11.8851 33.789 12.9493C33.0761 14.0135 32.0639 14.8484 30.8771 15.3512C30.7974 15.3849 30.7117 15.4023 30.6251 15.4023H30.4664C29.2896 15.887 27.9951 16.0259 26.7388 15.8007C25.4371 15.5674 24.2359 14.9539 23.2902 14.0395L23.2852 14.0346L23.0677 13.8196C22.4538 13.2121 21.7245 12.7298 20.922 12.401C20.1196 12.0722 19.2594 11.9029 18.3907 11.9029C17.522 11.9029 16.6618 12.0722 15.8593 12.401C15.0569 12.7298 14.3278 13.2118 13.7139 13.8193L13.7134 13.8198C13.0988 14.4267 12.6112 15.1474 12.2786 15.9406C11.9459 16.7339 11.7747 17.5842 11.7747 18.4429C11.7747 19.3016 11.9459 20.1519 12.2786 20.9451C12.6112 21.7384 13.0988 22.459 13.7134 23.0659L13.9361 23.2861C14.8612 24.2209 15.4817 25.4083 15.7178 26.695C15.9526 27.9752 15.7961 29.2954 15.2684 30.487C14.8085 31.7116 13.9883 32.7723 12.9132 33.5324C11.8326 34.2964 10.5444 34.7214 9.21627 34.7521L9.20131 34.7523H8.87506C7.1219 34.7523 5.44054 35.4407 4.20087 36.6662C2.9612 37.8916 2.26476 39.5536 2.26476 41.2866C2.26476 43.0196 2.9612 44.6817 4.20087 45.9071C5.44054 47.1325 7.1219 47.8209 8.87506 47.8209H9.49386C10.7851 47.826 12.0466 48.2042 13.1232 48.909C14.1988 49.6131 15.0429 50.6126 15.5517 51.7844C16.0847 52.98 16.2436 54.3059 16.0078 55.5915C15.7717 56.8783 15.1512 58.0656 14.2261 59.0005L14.2212 59.0055L14.0036 59.2204C13.389 59.8273 12.9012 60.5482 12.5686 61.3414C12.2359 62.1347 12.0647 62.985 12.0647 63.8437C12.0647 64.7024 12.2359 65.5527 12.5686 66.346C12.9012 67.1392 13.3888 67.8599 14.0034 68.4667L14.0039 68.4672C14.6178 69.0748 15.3469 69.5567 16.1493 69.8856C16.9518 70.2144 17.812 70.3837 18.6807 70.3837C19.5494 70.3837 20.4095 70.2144 21.212 69.8856C22.0145 69.5567 22.7435 69.0748 23.3575 68.4672L23.5802 68.247C24.5259 67.3326 25.7271 66.7192 27.0288 66.4859C28.3239 66.2538 29.6594 66.4085 30.8648 66.9301C32.1037 67.3847 33.1768 68.1955 33.9457 69.2583C34.7186 70.3264 35.1485 71.5997 35.1796 72.9127L35.1798 72.9275V73.25C35.1798 74.983 35.8762 76.645 37.1159 77.8704C38.3555 79.0958 40.0369 79.7843 41.7901 79.7843C43.5432 79.7843 45.2246 79.0958 46.4642 77.8704C47.7039 76.645 48.4003 74.983 48.4003 73.25V72.6408L48.4003 72.6383C48.4055 71.3619 48.7881 70.1148 49.5011 69.0506C50.2133 67.9875 51.2243 67.1532 52.4096 66.6502C53.6192 66.1232 54.9606 65.9661 56.2613 66.1992C57.563 66.4325 58.7642 67.046 59.7099 67.9604L59.7149 67.9653L59.9324 68.1803C60.5463 68.7878 61.2756 69.2701 62.0781 69.5989C62.8806 69.9277 63.7407 70.097 64.6094 70.097C65.4781 70.097 66.3383 69.9277 67.1408 69.5989C67.9432 69.2701 68.6723 68.7881 69.2862 68.1806L69.2867 68.1801C69.9013 67.5732 70.3889 66.8525 70.7215 66.0593C71.0542 65.266 71.2254 64.4157 71.2254 63.557C71.2254 62.6983 71.0542 61.848 70.7215 61.0548C70.3889 60.2615 69.9013 59.5409 69.2867 58.934L69.064 58.7138C68.1389 57.779 67.5184 56.5916 67.2823 55.3049C67.0465 54.0192 67.2054 52.6931 67.7385 51.4975C68.2474 50.3257 69.0914 49.3264 70.1669 48.6223C71.2435 47.9176 72.505 47.5394 73.7962 47.5343L73.7988 47.5343L74.125 47.5343C75.8782 47.5343 77.5596 46.8458 78.7992 45.6204C80.0389 44.395 80.7353 42.733 80.7353 41C80.7353 39.2669 80.0389 37.6049 78.7992 36.3795C77.5596 35.1541 75.8782 34.4656 74.125 34.4656H73.5088L73.5062 34.4656C72.215 34.4605 70.9535 34.0823 69.8769 33.3776C68.8003 32.6728 67.9557 31.6722 67.4471 30.4991C67.4129 30.4203 67.3953 30.3356 67.3953 30.2499V30.0931C66.905 28.9298 66.7645 27.6503 66.9923 26.4084C67.2284 25.1216 67.8489 23.9343 68.774 22.9994L68.7789 22.9944L68.9965 22.7795C69.6111 22.1726 70.0989 21.4517 70.4315 20.6585C70.7642 19.8652 70.9354 19.0149 70.9354 18.1562C70.9354 17.2975 70.7642 16.4472 70.4315 15.6539C70.0989 14.8607 69.6113 14.14 68.9967 13.5332L68.9962 13.5327C68.3823 12.9251 67.6533 12.4432 66.8508 12.1143C66.0483 11.7855 65.1881 11.6162 64.3194 11.6162C63.4507 11.6162 62.5906 11.7855 61.7881 12.1143C60.9856 12.4432 60.2566 12.9251 59.6426 13.5327L59.4199 13.7529C58.4742 14.6673 57.273 15.2807 55.9713 15.514C54.6708 15.7471 53.3294 15.5901 52.1199 15.0632C50.9344 14.5602 49.9234 13.7259 49.2111 12.6626C48.4981 11.5984 48.1155 10.3514 48.1104 9.07497L48.1103 9.07245V8.74995C48.1103 7.01694 47.4139 5.35491 46.1742 4.12949C44.9346 2.90407 43.2532 2.21563 41.5001 2.21563ZM35.9212 3.23521C37.4008 1.77261 39.4076 0.950928 41.5001 0.950928C43.5925 0.950928 45.5993 1.77261 47.0789 3.23521C48.5585 4.69781 49.3898 6.68152 49.3898 8.74995L49.3898 9.06993C49.3898 9.07032 49.3898 9.07071 49.3898 9.0711C49.3941 10.1004 49.7028 11.1061 50.2778 11.9643C50.853 12.8228 51.6696 13.4964 52.627 13.9021L52.6334 13.9047C53.6098 14.3307 54.6929 14.4578 55.7431 14.2696C56.7921 14.0816 57.7602 13.5875 58.5228 12.851C58.5236 12.8503 58.5244 12.8495 58.5252 12.8487L58.7375 12.6389C58.7375 12.6388 58.7374 12.639 58.7375 12.6389C59.4701 11.9139 60.3405 11.3385 61.2981 10.946C62.2559 10.5536 63.2826 10.3515 64.3194 10.3515C65.3563 10.3515 66.3829 10.5536 67.3407 10.946C68.2983 11.3384 69.1682 11.9135 69.9009 12.6384C70.6344 13.3627 71.2164 14.2229 71.6134 15.1696C72.0105 16.1164 72.2148 17.1313 72.2148 18.1562C72.2148 19.1811 72.0105 20.196 71.6134 21.1428C71.2164 22.0895 70.6344 22.9497 69.9009 23.674L69.6886 23.8838C69.6878 23.8846 69.687 23.8854 69.6862 23.8863C68.9412 24.6401 68.4414 25.597 68.2512 26.634C68.0608 27.6721 68.1894 28.7428 68.6203 29.708C68.6562 29.7884 68.6748 29.8754 68.6748 29.9633V30.1163C69.0895 31.013 69.7503 31.7778 70.5833 32.3231C71.4515 32.8915 72.4689 33.1966 73.5102 33.2009H74.125C76.2175 33.2009 78.2243 34.0226 79.7039 35.4852C81.1835 36.9478 82.0148 38.9315 82.0148 41C82.0148 43.0684 81.1835 45.0521 79.7039 46.5147C78.2243 47.9773 76.2175 48.799 74.125 48.799L73.8014 48.799C73.801 48.799 73.8006 48.799 73.8002 48.799C72.7589 48.8033 71.7415 49.1084 70.8733 49.6768C70.0048 50.2453 69.3234 51.0526 68.913 51.9991L68.9103 52.0053C68.4794 52.9705 68.3508 54.0411 68.5412 55.0792C68.7314 56.1162 69.2311 57.0731 69.9761 57.8269C69.9769 57.8277 69.9777 57.8286 69.9786 57.8294L70.1909 58.0392C70.191 58.0393 70.1908 58.0391 70.1909 58.0392C70.9243 58.7635 71.5064 59.6238 71.9034 60.5705C72.3005 61.5173 72.5048 62.5321 72.5048 63.557C72.5048 64.5819 72.3005 65.5968 71.9034 66.5436C71.5064 67.4903 70.9246 68.3503 70.1911 69.0746C69.4585 69.7996 68.5884 70.3748 67.6307 70.7672C66.6729 71.1597 65.6463 71.3617 64.6094 71.3617C63.5726 71.3617 62.5459 71.1597 61.5881 70.7672C60.6304 70.3748 59.7604 69.7996 59.0277 69.0746C59.0276 69.0745 59.0278 69.0747 59.0277 69.0746L58.8152 68.8645C58.8144 68.8637 58.8135 68.8628 58.8126 68.862C58.0501 68.1256 57.082 67.6317 56.0331 67.4436C54.9829 67.2554 53.8998 67.3825 52.9233 67.8085L52.9171 67.8112C51.9596 68.2169 51.143 68.8904 50.5678 69.7489C49.9928 70.6072 49.6841 71.6128 49.6798 72.6421C49.6798 72.6425 49.6798 72.6429 49.6798 72.6433L49.6798 73.25C49.6798 75.3184 48.8485 77.3021 47.3689 78.7647C45.8893 80.2273 43.8825 81.049 41.7901 81.049C39.6976 81.049 37.6908 80.2273 36.2112 78.7647C34.7316 77.3021 33.9003 75.3184 33.9003 73.25V72.935C33.8739 71.8784 33.5272 70.8538 32.9051 69.994C32.2816 69.1322 31.4102 68.4758 30.4042 68.1101C30.3974 68.1076 30.3907 68.105 30.384 68.1023C30.3782 68.1 30.3725 68.0976 30.3668 68.0951C29.3903 67.6692 28.3072 67.5421 27.2571 67.7303C26.208 67.9183 25.24 68.4123 24.4774 69.1487C24.4765 69.1496 24.4757 69.1504 24.4749 69.1512L24.2626 69.361C23.5299 70.0861 22.6598 70.6614 21.702 71.0539C20.7442 71.4463 19.7175 71.6484 18.6807 71.6484C17.6439 71.6484 16.6172 71.4463 15.6594 71.0539C14.7016 70.6614 13.8315 70.0861 13.0987 69.361C12.3654 68.6368 11.7836 67.7768 11.3867 66.8303C10.9896 65.8835 10.7853 64.8686 10.7853 63.8437C10.7853 62.8188 10.9896 61.8039 11.3867 60.8571C11.7837 59.9105 12.3655 59.0504 13.099 58.3261C13.099 58.3261 13.0989 58.3262 13.099 58.3261L13.3115 58.1161C13.3123 58.1153 13.3131 58.1145 13.3139 58.1137C14.0589 57.3599 14.5587 56.4029 14.7489 55.3659C14.9393 54.3278 14.8107 53.2571 14.3798 52.2919L14.377 52.2857C13.9667 51.3392 13.2853 50.532 12.4168 49.9634C11.5486 49.3951 10.5313 49.09 9.48995 49.0856C9.48955 49.0856 9.48915 49.0856 9.48876 49.0856L8.87506 49.0856C6.78258 49.0856 4.7758 48.264 3.29619 46.8014C1.81659 45.3388 0.985352 43.355 0.985352 41.2866C0.985352 39.2182 1.81659 37.2345 3.29619 35.7719C4.7758 34.3093 6.78258 33.4876 8.87506 33.4876H9.19364C10.2626 33.4614 11.2991 33.1187 12.1689 32.5038C13.0407 31.8874 13.7047 31.0261 14.0747 30.0317C14.0793 30.0192 14.0844 30.0068 14.0898 29.9946C14.5207 29.0294 14.6493 27.9587 14.4589 26.9207C14.2687 25.8837 13.7689 24.9267 13.0239 24.1729L12.8092 23.9607C12.0757 23.2364 11.4937 22.3762 11.0967 21.4294C10.6996 20.4826 10.4953 19.4678 10.4953 18.4429C10.4953 17.418 10.6996 16.4031 11.0967 15.4563C11.4937 14.5095 12.0757 13.6494 12.8092 12.9251C13.5419 12.2002 14.4118 11.6251 15.3694 11.2327C16.3272 10.8402 17.3539 10.6382 18.3907 10.6382C19.4275 10.6382 20.4542 10.8402 21.412 11.2327C22.3697 11.6251 23.2397 12.2003 23.9724 12.9253C23.9725 12.9254 23.9723 12.9252 23.9724 12.9253L24.1874 13.1378C24.95 13.8742 25.918 14.3682 26.967 14.5563C28.0172 14.7445 29.1003 14.6174 30.0768 14.1914C30.1581 14.1559 30.2461 14.1376 30.3351 14.1376H30.4899C31.397 13.7276 32.1707 13.0744 32.7223 12.251C33.2973 11.3927 33.606 10.3871 33.6103 9.35777V8.74995C33.6103 6.68152 34.4416 4.69781 35.9212 3.23521Z" fill="black"/>
</svg>
