<svg width="43" height="48" viewBox="0 0 43 48" fill="none" xmlns="http://www.w3.org/2000/svg">
<path fill-rule="evenodd" clip-rule="evenodd" d="M18.9738 0.666082C19.7428 0.222204 20.615 -0.0114746 21.5028 -0.0114746C22.3907 -0.0114746 23.2629 0.222204 24.0318 0.666082C24.0321 0.666223 24.0323 0.666364 24.0326 0.666505L40.4759 10.0646C41.2443 10.5083 41.8825 11.1463 42.3265 11.9146C42.7705 12.6829 43.0048 13.5545 43.0057 14.4419V33.2389C43.0048 34.1263 42.7705 34.9979 42.3265 35.7662C41.8825 36.5345 41.2443 37.1725 40.4759 37.6162L40.4745 37.617L24.0326 47.0143C24.0324 47.0144 24.0323 47.0145 24.0322 47.0145C23.2631 47.4585 22.3908 47.6923 21.5028 47.6923C20.6149 47.6923 19.7425 47.4585 18.9735 47.0145C18.9734 47.0145 18.9732 47.0144 18.9731 47.0143L2.53114 37.617L2.52975 37.6162C1.76137 37.1725 1.12316 36.5345 0.679139 35.7662C0.235122 34.9979 0.000910049 34.1263 0 33.2389V14.4419C0.000910049 13.5545 0.235121 12.6829 0.679139 11.9146C1.12316 11.1463 1.76137 10.5083 2.52975 10.0646L2.53114 10.0638L18.9731 0.666505C18.9733 0.666364 18.9736 0.666223 18.9738 0.666082ZM21.5028 0.711456C20.7416 0.711456 19.9937 0.911879 19.3345 1.29258L19.3331 1.29338L2.89114 10.6907C2.89089 10.6908 2.89065 10.691 2.8904 10.6911C2.23212 11.0714 1.68535 11.6181 1.3049 12.2764C0.924348 12.9349 0.723597 13.6819 0.722784 14.4425V33.2383C0.723597 33.9989 0.924347 34.7459 1.3049 35.4044C1.68533 36.0627 2.23206 36.6093 2.89029 36.9897C2.89057 36.9898 2.89086 36.99 2.89114 36.9901L19.3345 46.3882C19.9937 46.7689 20.7416 46.9694 21.5028 46.9694C22.2641 46.9694 23.0119 46.7689 23.6712 46.3882L23.6726 46.3874L40.1145 36.9901C40.1148 36.99 40.1151 36.9898 40.1154 36.9897C40.7736 36.6093 41.3203 36.0627 41.7008 35.4044C42.0813 34.7459 42.2821 33.9988 42.2829 33.2381V14.4427C42.2821 13.682 42.0813 12.935 41.7008 12.2764C41.3203 11.6181 40.7735 11.0714 40.1153 10.6911C40.115 10.691 40.1148 10.6908 40.1145 10.6907L23.6726 1.29338L23.6712 1.29258C23.0119 0.911879 22.2641 0.711456 21.5028 0.711456Z" fill="black"/>
</svg>
