<svg width="60" height="60" viewBox="0 0 60 60" fill="none" xmlns="http://www.w3.org/2000/svg">
<path d="M30 0C46.566 0 60 13.434 60 30C60 46.566 46.566 60 30 60C13.434 60 0 46.566 0 30C0 13.434 13.434 0 30 0ZM12.8773 37.1022C12.9607 38.936 13.2523 40.188 13.678 41.2839C14.5729 43.5979 16.4021 45.4271 18.7161 46.322C19.8116 46.7477 21.064 47.0389 22.8973 47.1227C24.7343 47.2064 25.3212 47.2266 29.9995 47.2266C34.6783 47.2266 35.2647 47.2064 37.1022 47.1227C38.9355 47.0389 40.188 46.7477 41.2834 46.322C42.4333 45.8894 43.4743 45.2115 44.3349 44.3349C45.211 43.4747 45.889 42.4333 46.3216 41.2839C46.7473 40.1884 47.0389 38.936 47.1222 37.1027C47.2069 35.2652 47.2266 34.6783 47.2266 30C47.2266 25.3217 47.2069 24.7348 47.1227 22.8978C47.0393 21.064 46.7482 19.812 46.3225 18.7161C45.8899 17.5667 45.2115 16.5253 44.3349 15.6651C43.4747 14.7885 42.4333 14.1106 41.2839 13.678C40.188 13.2523 38.936 12.9611 37.1022 12.8773C35.2652 12.7936 34.6783 12.7734 30 12.7734C25.3217 12.7734 24.7348 12.7936 22.8978 12.8778C21.064 12.9611 19.812 13.2523 18.7161 13.6775C17.5667 14.1101 16.5253 14.7885 15.6647 15.6651C14.7885 16.5257 14.1101 17.5667 13.678 18.7161C13.2518 19.812 12.9607 21.064 12.8769 22.8978C12.7931 24.7348 12.7734 25.3217 12.7734 30C12.7734 34.6783 12.7931 35.2652 12.8773 37.1022Z" fill="#7C7C7C"/>
</svg>
