<svg width="30" height="30" viewBox="0 0 30 30" fill="none" xmlns="http://www.w3.org/2000/svg">
<path d="M1.57104 4.8403C1.84708 4.09232 2.28745 3.41528 2.85965 2.85956C3.41537 2.28735 4.09195 1.84699 4.84039 1.57095C5.44739 1.33521 6.35925 1.0546 8.03879 0.978149C9.85565 0.895294 10.4004 0.877441 15 0.877441C19.6001 0.877441 20.1448 0.894836 21.9612 0.977692C23.6407 1.0546 24.5531 1.33521 25.1596 1.57095C25.9081 1.84699 26.5851 2.28735 27.1404 2.85956C27.7126 3.41528 28.1529 4.09186 28.4294 4.8403C28.6652 5.4473 28.9458 6.35962 29.0222 8.03916C29.1051 9.85556 29.1229 10.4003 29.1229 15.0004C29.1229 19.6 29.1051 20.1447 29.0222 21.9616C28.9458 23.6411 28.6652 24.553 28.4294 25.16C28.1529 25.9084 27.713 26.585 27.1408 27.1407C26.5851 27.7129 25.9085 28.1533 25.1601 28.4293C24.5531 28.6655 23.6407 28.9461 21.9612 29.0226C20.1448 29.1054 19.6005 29.1228 15.0005 29.1228C10.3999 29.1228 9.85519 29.1054 8.03925 29.0226C6.35971 28.9461 5.44739 28.6655 4.84039 28.4293C3.33801 27.8498 2.15057 26.6624 1.57104 25.16C1.3353 24.553 1.05469 23.6411 0.977783 21.9616C0.894928 20.1447 0.877533 19.6 0.877533 15.0004C0.877533 10.4003 0.894928 9.85556 0.977783 8.03916C1.05423 6.35962 1.33484 5.4473 1.57104 4.8403ZM15 23.8457C19.8857 23.8457 23.8463 19.8856 23.8463 14.9999C23.8463 10.1142 19.8857 6.15408 15 6.15408C10.1147 6.15408 6.15417 10.1142 6.15417 14.9999C6.15417 19.8856 10.1147 23.8457 15 23.8457ZM5.80444 7.87161C6.94611 7.87161 7.8717 6.94602 7.8717 5.80435C7.8717 4.66269 6.94611 3.73709 5.80444 3.73709C4.66278 3.73709 3.73718 4.66269 3.73718 5.80435C3.73764 6.94602 4.66278 7.87161 5.80444 7.87161Z" fill="#7C7C7C"/>
</svg>
